<svg id="svg" version="1.1" xmlns="http://www.w3.org/2000/svg" xmlns:xlink="http://www.w3.org/1999/xlink" width="400" height="400" viewBox="0, 0, 400,400"><g id="svgg"><path id="path0" d="M190.457 44.460 C 184.380 47.389,182.822 54.814,185.960 65.882 C 187.382 70.897,188.442 79.636,188.317 85.303 C 188.074 96.249,191.648 100.442,197.253 95.790 C 199.264 94.121,200.000 94.112,200.000 95.755 C 200.000 96.990,200.900 98.000,202.000 98.000 C 203.100 98.000,204.003 96.425,204.006 94.500 C 204.009 92.575,206.565 89.289,209.686 87.199 C 215.250 83.471,215.343 83.102,214.435 68.199 C 213.660 55.485,210.268 40.982,210.061 49.500 C 209.973 53.120,206.000 52.582,206.000 48.950 C 206.000 46.639,197.665 41.295,195.370 42.135 C 195.166 42.210,192.955 43.256,190.457 44.460 M239.235 68.141 C 237.240 71.519,236.062 76.020,236.617 78.144 C 237.173 80.268,236.873 81.540,235.952 80.970 C 231.920 78.478,232.066 84.588,236.122 88.106 L 240.612 92.000 234.806 92.004 C 224.209 92.012,191.171 110.623,189.945 117.276 C 189.104 121.842,188.611 122.292,187.508 119.500 C 186.748 117.575,184.407 116.000,182.308 116.000 C 180.208 116.000,177.378 114.660,176.018 113.022 C 172.683 109.003,170.122 110.963,171.473 116.502 C 172.522 120.801,172.310 120.757,166.676 115.500 C 156.935 106.412,152.057 110.123,159.271 121.133 C 164.233 128.706,160.498 129.784,154.749 122.439 C 148.974 115.060,142.477 114.253,133.105 119.751 C 127.510 123.033,127.031 123.031,123.712 119.712 C 114.626 110.626,110.129 90.000,117.233 90.000 C 118.755 90.000,120.000 89.100,120.000 88.000 C 120.000 86.900,118.760 86.000,117.245 86.000 C 115.730 86.000,113.369 84.650,112.000 83.000 C 104.695 74.198,93.852 82.619,94.462 96.621 C 95.001 109.006,91.517 112.729,81.955 109.987 C 67.066 105.717,63.949 109.974,72.194 123.315 C 74.501 127.047,75.848 131.510,75.188 133.232 C 74.527 134.954,75.851 138.981,78.129 142.182 C 82.541 148.377,81.770 149.105,71.806 148.156 C 70.050 147.989,67.509 149.182,66.160 150.807 C 64.811 152.433,62.301 153.222,60.581 152.562 C 58.477 151.755,57.761 152.285,58.391 154.181 C 59.033 156.116,63.327 157.202,72.076 157.644 C 81.725 158.131,85.455 159.187,87.418 161.991 C 88.845 164.027,93.295 166.777,97.307 168.101 L 104.601 170.509 97.987 173.290 C 91.389 176.064,84.000 175.344,84.000 171.928 C 84.000 170.937,85.506 170.704,87.347 171.410 C 89.928 172.400,90.386 171.890,89.347 169.184 C 88.606 167.253,88.000 165.296,88.000 164.836 C 88.000 164.376,86.650 164.000,85.000 164.000 C 83.350 164.000,82.000 164.707,82.000 165.571 C 82.000 166.436,80.332 167.143,78.294 167.143 C 76.255 167.143,74.680 165.858,74.794 164.287 C 74.907 162.716,74.025 161.084,72.833 160.660 C 71.585 160.216,70.667 162.456,70.667 165.944 C 70.667 169.803,71.683 172.000,73.468 172.000 C 75.359 172.000,75.857 173.300,75.000 176.000 C 74.010 179.120,74.641 180.000,77.865 180.000 C 80.139 180.000,82.000 180.900,82.000 182.000 C 82.000 183.100,81.325 184.002,80.500 184.005 C 78.437 184.011,66.000 194.780,66.000 196.560 C 66.000 197.352,67.410 198.000,69.133 198.000 C 71.371 198.000,72.085 199.571,71.633 203.500 C 71.086 208.254,70.219 208.916,65.241 208.384 C 60.715 207.899,59.739 208.434,60.679 210.884 C 61.336 212.598,61.003 214.000,59.937 214.000 C 58.872 214.000,58.000 214.996,58.000 216.214 C 58.000 217.546,59.394 217.846,61.500 216.967 C 63.425 216.163,67.700 214.905,71.000 214.171 C 74.315 213.433,77.000 211.530,77.000 209.918 C 77.000 208.313,78.262 206.012,79.806 204.803 C 81.349 203.595,81.970 201.570,81.188 200.303 C 80.171 198.659,83.347 198.000,92.282 198.000 C 102.018 198.000,104.267 198.533,102.400 200.400 C 98.024 204.776,99.897 205.936,109.500 204.797 C 116.538 203.962,118.223 204.223,116.000 205.804 C 114.350 206.978,111.096 207.953,108.770 207.969 C 106.443 207.986,102.251 209.800,99.454 212.000 C 96.657 214.200,91.361 216.012,87.685 216.027 C 78.695 216.064,71.798 218.056,73.141 220.227 C 73.743 221.202,78.705 222.000,84.168 222.000 C 93.626 222.000,94.158 222.289,95.312 228.061 C 97.969 241.344,115.570 246.612,125.182 237.000 C 130.303 231.879,152.000 229.146,149.000 234.000 C 148.320 235.100,145.117 236.000,141.882 236.000 C 135.417 236.000,134.378 238.164,139.000 242.000 C 141.322 243.927,142.646 243.953,144.861 242.115 C 149.607 238.177,159.433 239.096,166.840 244.171 C 172.274 247.895,173.170 249.305,170.905 250.573 C 169.307 251.467,168.000 254.487,168.000 257.284 C 168.000 260.081,166.200 264.657,164.000 267.454 C 161.800 270.251,160.000 273.581,160.000 274.853 C 160.000 276.126,155.855 281.180,150.788 286.084 C 136.510 299.903,110.000 329.735,110.000 331.983 C 110.000 336.792,114.770 332.557,135.687 309.174 C 153.897 288.816,158.661 284.547,162.149 285.460 C 165.525 286.342,166.251 285.790,165.665 282.786 C 164.729 277.990,174.362 269.497,178.804 271.201 C 180.562 271.876,182.000 274.132,182.000 276.214 C 182.000 278.296,183.262 280.000,184.804 280.000 C 186.347 280.000,188.550 282.700,189.700 286.000 C 190.851 289.300,192.835 292.000,194.110 292.000 C 195.403 292.000,195.891 293.400,195.213 295.167 C 193.557 299.483,198.113 297.795,200.857 293.077 C 202.036 291.051,205.342 287.054,208.204 284.196 C 211.066 281.338,213.954 277.650,214.622 276.000 C 215.291 274.350,215.649 276.505,215.419 280.789 C 215.163 285.549,215.972 288.920,217.500 289.456 C 219.054 290.001,220.000 288.497,220.000 285.478 C 220.000 280.969,227.423 270.000,230.475 270.000 C 231.216 270.000,230.503 273.740,228.890 278.312 C 227.277 282.884,226.374 287.041,226.883 287.550 C 227.393 288.059,226.502 289.783,224.905 291.381 C 221.683 294.603,220.994 300.000,223.804 300.000 C 224.797 300.000,226.601 297.154,227.813 293.676 C 231.530 283.014,232.999 289.212,233.025 315.667 C 233.053 343.961,236.276 356.000,243.821 356.000 C 249.307 356.000,253.495 341.530,249.934 334.877 C 247.980 331.226,248.285 328.067,251.593 317.702 C 253.822 310.716,255.579 302.300,255.498 299.000 C 255.196 286.775,257.961 277.478,261.118 280.098 C 262.703 281.414,264.000 283.730,264.000 285.245 C 264.000 286.760,265.800 288.000,268.000 288.000 C 270.667 288.000,272.000 286.667,272.000 284.000 C 272.000 281.800,270.703 280.000,269.118 280.000 C 267.533 280.000,265.658 279.064,264.950 277.920 C 264.117 276.571,265.482 276.296,268.832 277.137 C 271.989 277.929,274.000 277.597,274.000 276.283 C 274.000 272.955,287.060 260.687,289.675 261.558 C 290.954 261.985,292.000 261.305,292.000 260.049 C 292.000 258.792,292.900 258.320,294.000 259.000 C 295.100 259.680,296.000 258.833,296.000 257.118 C 296.000 255.333,294.290 254.000,292.000 254.000 C 287.698 254.000,286.639 251.077,290.153 248.905 C 293.124 247.069,299.273 254.214,298.411 258.500 C 298.024 260.425,298.673 262.000,299.853 262.000 C 301.034 262.000,302.013 259.975,302.029 257.500 C 302.059 253.024,302.072 253.026,304.529 257.861 C 309.335 267.314,328.233 267.949,337.223 258.958 C 346.407 249.774,340.668 236.000,327.657 236.000 C 319.206 236.000,313.418 230.878,316.426 226.061 C 317.720 223.989,320.145 222.935,322.313 223.502 C 324.341 224.033,326.000 223.420,326.000 222.140 C 326.000 220.724,327.873 221.220,330.783 223.407 C 333.919 225.762,334.791 227.485,333.316 228.407 C 330.162 230.379,344.408 236.042,349.303 234.762 C 352.144 234.019,353.891 235.170,355.594 238.907 C 360.637 249.975,377.174 251.439,379.134 240.991 C 381.771 226.930,372.044 220.598,357.500 226.909 C 354.933 228.023,354.000 227.509,354.000 224.981 C 354.000 222.540,352.854 221.833,350.074 222.560 C 347.914 223.125,345.043 222.257,343.693 220.630 C 342.344 219.004,335.785 214.873,329.120 211.451 C 320.019 206.778,317.996 205.027,321.000 204.420 C 323.200 203.975,325.855 202.799,326.900 201.806 C 327.945 200.813,331.256 200.000,334.257 200.000 C 347.759 200.000,350.811 182.713,338.459 176.207 C 335.961 174.891,333.036 174.360,331.959 175.026 C 330.881 175.691,330.000 175.283,330.000 174.118 C 330.000 172.953,331.350 172.000,333.000 172.000 C 334.650 172.000,336.000 170.995,336.000 169.767 C 336.000 168.519,334.237 167.995,332.002 168.579 C 329.803 169.154,327.452 168.731,326.776 167.638 C 326.101 166.545,323.904 166.082,321.894 166.607 C 314.967 168.419,313.049 156.708,319.096 149.522 C 321.874 146.219,325.391 140.543,326.909 136.909 C 329.208 131.406,331.120 130.016,338.335 128.598 C 349.393 126.426,352.648 115.243,342.932 112.804 C 339.431 111.926,338.454 110.955,340.066 109.959 C 341.412 109.128,341.894 107.447,341.138 106.224 C 339.385 103.388,336.000 103.334,336.000 106.143 C 336.000 107.321,334.650 109.636,333.000 111.286 C 330.582 113.704,330.000 113.753,330.000 111.542 C 330.000 107.702,325.321 98.034,323.453 98.016 C 322.602 98.007,322.428 104.975,323.065 113.500 C 324.299 130.018,322.293 137.093,317.683 132.483 C 316.317 131.117,313.130 130.000,310.600 130.000 C 307.027 130.000,306.000 128.884,306.000 125.000 C 306.000 119.982,301.456 118.026,299.007 121.989 C 298.330 123.083,295.919 124.973,293.647 126.189 C 290.660 127.788,289.893 127.791,290.877 126.200 C 291.624 124.990,291.211 124.000,289.959 124.000 C 288.498 124.000,288.129 121.964,288.930 118.319 C 290.241 112.350,286.728 107.427,281.648 108.115 C 270.406 109.638,266.589 104.110,271.958 94.079 C 274.590 89.160,270.828 86.219,261.930 86.242 C 252.401 86.266,247.774 85.551,248.509 84.167 C 253.335 75.080,254.316 71.533,253.216 67.147 C 251.349 59.711,243.902 60.240,239.235 68.141 M113.179 69.253 C 111.817 72.804,115.147 78.018,118.745 77.969 C 123.589 77.904,126.415 74.459,125.079 70.250 C 123.454 65.128,115.033 64.423,113.179 69.253 M164.000 74.833 C 164.000 76.575,165.425 78.000,167.167 78.000 C 168.908 78.000,169.977 76.931,169.542 75.625 C 168.306 71.917,164.000 71.301,164.000 74.833 M256.000 74.572 C 256.000 77.373,259.951 80.000,264.164 80.000 C 265.174 80.000,266.000 78.650,266.000 77.000 C 266.000 75.350,265.174 74.000,264.164 74.000 C 263.154 74.000,260.904 73.454,259.164 72.786 C 257.145 72.012,256.000 72.658,256.000 74.572 M276.000 81.000 C 276.000 82.650,277.350 84.000,279.000 84.000 C 280.650 84.000,282.000 82.650,282.000 81.000 C 282.000 79.350,280.650 78.000,279.000 78.000 C 277.350 78.000,276.000 79.350,276.000 81.000 M138.000 84.833 C 138.000 86.575,139.425 88.000,141.167 88.000 C 144.699 88.000,144.083 83.694,140.375 82.458 C 139.069 82.023,138.000 83.092,138.000 84.833 M318.000 87.000 C 318.000 88.650,318.900 90.000,320.000 90.000 C 321.100 90.000,322.000 88.650,322.000 87.000 C 322.000 85.350,321.100 84.000,320.000 84.000 C 318.900 84.000,318.000 85.350,318.000 87.000 M150.000 96.000 C 150.000 98.200,150.900 100.000,152.000 100.000 C 153.100 100.000,154.000 98.200,154.000 96.000 C 154.000 93.800,153.100 92.000,152.000 92.000 C 150.900 92.000,150.000 93.800,150.000 96.000 M138.713 97.025 C 137.376 100.512,141.268 106.000,145.078 106.000 C 148.577 106.000,149.859 101.778,147.659 97.500 C 145.448 93.200,140.286 92.926,138.713 97.025 M58.000 100.833 C 58.000 102.575,59.425 104.000,61.167 104.000 C 64.699 104.000,64.083 99.694,60.375 98.458 C 59.069 98.023,58.000 99.092,58.000 100.833 M278.000 100.000 C 278.000 101.100,279.350 102.000,281.000 102.000 C 282.650 102.000,284.000 101.100,284.000 100.000 C 284.000 98.900,282.650 98.000,281.000 98.000 C 279.350 98.000,278.000 98.900,278.000 100.000 M303.085 99.862 C 302.453 100.886,302.849 102.289,303.967 102.980 C 306.354 104.455,310.000 102.583,310.000 99.882 C 310.000 97.448,304.587 97.433,303.085 99.862 M292.458 108.375 C 293.694 112.083,298.000 112.699,298.000 109.167 C 298.000 107.425,296.575 106.000,294.833 106.000 C 293.092 106.000,292.023 107.069,292.458 108.375 M352.000 120.667 C 352.000 124.818,354.367 126.185,357.316 123.738 C 361.193 120.520,360.615 118.000,356.000 118.000 C 353.800 118.000,352.000 119.200,352.000 120.667 M46.000 122.887 C 46.000 126.429,53.607 132.000,58.445 132.000 C 62.086 132.000,62.940 128.776,60.786 123.164 C 59.183 118.986,46.000 118.739,46.000 122.887 M312.000 125.000 C 312.000 126.650,312.900 128.000,314.000 128.000 C 315.100 128.000,316.000 126.650,316.000 125.000 C 316.000 123.350,315.100 122.000,314.000 122.000 C 312.900 122.000,312.000 123.350,312.000 125.000 M35.000 136.000 C 39.175 140.613,44.000 141.274,44.000 137.233 C 44.000 135.712,41.975 133.924,39.500 133.261 C 32.074 131.271,31.201 131.802,35.000 136.000 M19.333 141.333 C 11.559 149.107,31.894 158.129,41.118 150.999 C 44.928 148.053,44.912 147.923,40.278 143.999 C 35.698 140.120,22.257 138.409,19.333 141.333 M108.491 145.500 C 112.316 149.803,116.420 164.000,113.839 164.000 C 112.827 164.000,112.000 162.650,112.000 161.000 C 112.000 159.350,110.304 158.000,108.230 158.000 C 103.762 158.000,97.229 148.895,98.785 144.838 C 100.271 140.967,104.732 141.271,108.491 145.500 M341.333 153.333 C 340.600 154.067,340.000 157.217,340.000 160.333 C 340.000 167.016,350.994 168.949,353.396 162.688 C 355.278 157.786,344.917 149.750,341.333 153.333 M364.400 158.400 C 358.422 164.378,365.498 173.698,373.973 171.008 C 378.843 169.463,381.055 162.681,377.920 158.904 C 374.998 155.383,367.690 155.110,364.400 158.400 M320.500 160.500 C 320.958 161.875,322.533 163.000,324.000 163.000 C 325.467 163.000,327.042 161.875,327.500 160.500 C 327.996 159.013,326.578 158.000,324.000 158.000 C 321.422 158.000,320.004 159.013,320.500 160.500 M125.000 176.000 C 125.698 177.130,124.060 178.000,121.236 178.000 C 118.486 178.000,115.680 177.100,115.000 176.000 C 114.302 174.870,115.940 174.000,118.764 174.000 C 121.514 174.000,124.320 174.900,125.000 176.000 M60.991 186.014 C 60.307 187.122,61.192 188.583,62.959 189.261 C 66.789 190.731,68.923 189.111,67.082 186.133 C 65.421 183.446,62.612 183.391,60.991 186.014 M350.000 191.000 C 350.000 192.650,351.350 194.000,353.000 194.000 C 354.650 194.000,356.000 192.650,356.000 191.000 C 356.000 189.350,354.650 188.000,353.000 188.000 C 351.350 188.000,350.000 189.350,350.000 191.000 M360.073 208.912 C 357.074 212.525,359.000 216.000,364.000 216.000 C 366.070 216.000,368.345 215.061,369.054 213.912 C 370.380 211.767,366.697 206.000,364.000 206.000 C 363.169 206.000,361.402 207.311,360.073 208.912 M61.000 220.000 C 60.320 221.100,61.114 222.000,62.764 222.000 C 64.414 222.000,66.320 221.100,67.000 220.000 C 67.680 218.900,66.886 218.000,65.236 218.000 C 63.586 218.000,61.680 218.900,61.000 220.000 M135.542 224.375 C 134.306 228.083,130.000 228.699,130.000 225.167 C 130.000 223.425,131.425 222.000,133.167 222.000 C 134.908 222.000,135.977 223.069,135.542 224.375 M150.000 249.000 C 150.000 250.650,151.350 252.000,153.000 252.000 C 154.650 252.000,156.000 250.650,156.000 249.000 C 156.000 247.350,154.650 246.000,153.000 246.000 C 151.350 246.000,150.000 247.350,150.000 249.000 M198.829 249.724 C 199.415 250.671,200.075 254.496,200.296 258.224 C 200.830 267.232,201.785 268.668,205.302 265.749 C 207.510 263.917,207.215 266.022,204.125 274.152 C 201.857 280.118,200.002 285.225,200.001 285.500 C 200.000 285.775,199.225 286.000,198.277 286.000 C 197.330 286.000,196.985 283.750,197.510 281.000 C 198.333 276.697,197.737 276.000,193.233 276.000 C 190.355 276.000,188.000 275.100,188.000 274.000 C 188.000 272.900,186.755 272.000,185.233 272.000 C 180.299 272.000,180.353 264.558,185.348 256.181 C 189.946 248.471,196.203 245.474,198.829 249.724 M190.646 253.202 C 189.970 254.963,190.673 257.199,192.209 258.171 C 196.708 261.020,198.000 260.313,198.000 255.000 C 198.000 249.335,192.633 248.023,190.646 253.202 M156.690 255.086 C 156.039 256.784,156.028 258.695,156.667 259.333 C 158.685 261.351,164.000 258.256,164.000 255.063 C 164.000 251.071,158.224 251.089,156.690 255.086 M76.668 256.996 C 74.654 258.468,73.676 260.343,74.494 261.161 C 78.054 264.721,98.000 260.706,98.000 256.430 C 98.000 253.810,80.385 254.277,76.668 256.996 M188.000 263.000 C 188.000 264.650,188.900 266.000,190.000 266.000 C 191.100 266.000,192.000 264.650,192.000 263.000 C 192.000 261.350,191.100 260.000,190.000 260.000 C 188.900 260.000,188.000 261.350,188.000 263.000 M180.000 305.000 C 180.000 306.650,181.350 308.000,183.000 308.000 C 184.650 308.000,186.000 306.650,186.000 305.000 C 186.000 303.350,184.650 302.000,183.000 302.000 C 181.350 302.000,180.000 303.350,180.000 305.000 M80.755 319.201 C 75.390 323.248,70.625 326.883,70.167 327.279 C 69.708 327.676,69.886 328.553,70.561 329.228 C 72.093 330.759,84.003 323.522,88.953 318.052 C 95.389 310.940,90.869 311.574,80.755 319.201 M213.169 319.000 C 212.187 322.300,210.636 325.495,209.722 326.099 C 208.808 326.704,207.445 330.304,206.693 334.099 C 205.481 340.213,205.684 340.705,208.468 338.417 C 211.037 336.305,211.779 336.305,212.532 338.417 C 214.597 344.212,216.165 337.684,215.578 325.732 C 215.032 314.619,214.726 313.763,213.169 319.000 M202.000 323.000 C 202.000 324.650,202.900 326.000,204.000 326.000 C 205.100 326.000,206.000 324.650,206.000 323.000 C 206.000 321.350,205.100 320.000,204.000 320.000 C 202.900 320.000,202.000 321.350,202.000 323.000 " stroke="none" fill="#000000" fill-rule="evenodd"></path></g></svg>