<?xml version="1.0" encoding="utf-8"?>
<!-- Generator: Adobe Illustrator 27.5.0, SVG Export Plug-In . SVG Version: 6.00 Build 0)  -->
<svg version="1.1" xmlns="http://www.w3.org/2000/svg" xmlns:xlink="http://www.w3.org/1999/xlink" x="0px" y="0px"
	 viewBox="0 0 2200 1466" style="enable-background:new 0 0 2200 1466;" xml:space="preserve">
<g id="background">
	<rect y="0" style="fill:#FFFFFF;" width="2200" height="1466"/>
</g>
<g id="Objects">
	<g>
		<g>
			<path d="M1028.368,527.869c16.45,3.17,33.16,6.39,50.1,9.59c-4.09,3.21-8.29,6.48-12.63,9.82c-13.4-2.55-26.65-5.1-39.74-7.62
				l-4.33-0.84c-148.43-28.6-301.92-58.17-454.09-49.38c-172.14,9.95-319.16,71.06-413.97,172.09c-1.18,1.26-2.77,1.9-4.37,1.9
				c-1.47,0-2.95-0.54-4.11-1.63c-2.41-2.27-2.53-6.06-0.27-8.48c96.92-103.28,246.8-165.73,422.03-175.86
				c153.65-8.87,307.89,20.84,457.05,49.58L1028.368,527.869z"/>
			<path d="M2023.368,358.509c-73.15,65.72-156.93,118.92-249.01,158.12c-92.08,39.2-188.5,62.71-286.58,69.89
				c-105.95,7.75-213.19-3.6-315.17-20.16c4.04-3.43,7.93-6.85,11.7-10.28c98.32,15.58,201.22,25.89,302.6,18.47
				c96.75-7.08,191.88-30.28,282.75-68.96c90.86-38.69,173.52-91.17,245.69-156.01c2.47-2.21,6.26-2.01,8.48,0.46
				C2026.038,352.499,2025.838,356.299,2023.368,358.509z"/>
			<path d="M583.898,587.009c129.96,0.47,248.79,31.85,373.85,65.92c-2.43,3.49-4.76,7-6.99,10.52
				c-122.88-33.44-239.83-63.98-366.9-64.44h-1.52c-77.29,0-155.03,14.03-224.95,40.6c-75.81,28.8-139.8,70.63-190.18,124.32
				c-1.18,1.26-2.78,1.9-4.38,1.9c-1.47,0-2.95-0.54-4.1-1.63c-2.42-2.27-2.54-6.06-0.27-8.48
				c51.64-55.03,117.14-97.87,194.67-127.33C424.858,601.129,504.648,586.819,583.898,587.009z"/>
			<path d="M2033.628,543.559c-78.06,64.74-164.95,115.46-258.25,150.74c-92.3,34.9-189.15,54.07-287.86,56.97
				c-10.79,0.32-21.53,0.47-32.18,0.47c-50.24,0-98.86-3.4-145.74-9.09c-2.93-4.53-6.07-8.97-9.43-13.29
				c59.59,7.72,122.02,11.83,187,9.92c97.38-2.86,192.92-21.77,283.96-56.2c92.06-34.82,177.8-84.87,254.84-148.76
				c2.54-2.11,6.33-1.76,8.44,0.79C2036.528,537.659,2036.178,541.439,2033.628,543.559z"/>
			<path d="M600.808,696.589c111.96,7.16,210.17,39.88,311.67,76.77c-0.42,4.16-0.75,8.3-1,12.41
				c-101.77-37.05-199.99-70.08-311.43-77.21c-158.04-9.92-318.72,50.54-419.35,157.77c-2.27,2.42-6.06,2.54-8.48,0.27
				c-2.41-2.27-2.54-6.06-0.27-8.48c51.65-55.04,119.55-99.04,196.38-127.26C442.668,703.559,523.058,691.709,600.808,696.589z"/>
			<path d="M2043.888,728.589c-82.66,63.58-172.66,111.75-267.52,143.15c-88.9,29.43-182.59,44.33-278.63,44.33
				c-3.49,0-6.97-0.02-10.46-0.06c-57.36-0.64-111.09-5.17-161.51-12.33c1.43-3.81,2.74-7.68,3.92-11.58
				c49.3,6.92,101.78,11.28,157.72,11.91c98.37,1.13,194.32-13.58,285.19-43.66c93.57-30.98,182.39-78.51,263.97-141.27
				c2.63-2.03,6.39-1.53,8.41,1.09C2046.998,722.799,2046.508,726.569,2043.888,728.589z"/>
			<path d="M935.088,914.419c3.2,6.33,6.72,12.41,10.58,18.23c-4.69-2.2-9.37-4.41-14.02-6.6
				c-102.06-48.09-198.45-93.52-315.41-107.96c-152.81-18.86-318.47,40.27-422.04,150.64c-2.27,2.42-6.07,2.54-8.48,0.27
				c-2.42-2.27-2.54-6.06-0.27-8.48c106.1-113.07,275.77-173.65,432.26-154.34c118.23,14.59,215.06,60,317.38,108.23V914.419z"/>
			<path d="M2054.158,913.599c-87,62.33-180.13,107.87-276.79,135.38c-76.99,21.91-158.3,32.95-242.3,32.95
				c-15.91,0-31.92-0.39-48.02-1.19c-126.75-6.25-230.18-28.22-319.57-56.96c8.78-0.83,17.49-2.31,26.05-4.39h0.01
				c93.59,28.06,190.05,44.24,294.1,49.37c99.75,4.92,196.13-5.62,286.44-31.32c95.34-27.13,187.22-72.08,273.09-133.6
				c2.69-1.92,6.44-1.31,8.37,1.39C2057.468,907.919,2056.848,911.669,2054.158,913.599z"/>
		</g>
		<path d="M1322.53,797.447c-7.436-31.951-26.098-61.215-49.828-83.377c-33.325-32.97-79.36-48.445-122.306-44.346v-98.142
			c21.077-16.551,40.996-34.528,58.535-55.025c25.778-30.034,46.692-64.845,61.81-101.516c7.625-18.386,12.853-38.036,17.166-57.525
			c9.658-43.584,2.295-94.472-2.44-116.983c-4.432-19.908-16.949-47.182-32.587-64.548c-1.445-1.605-3.427-2.619-5.555-2.253
			c-6.992,1.203-20.101,7.162-23.755,9.188c-63.349,37.6-87.697,106.354-87.697,177.122v142.789
			c-2.998,2.576-5.965,5.147-8.881,7.714c-20.332,17.617-42.131,34.87-63.567,51.165c-65.935,49.422-125.9,112.975-139.13,197.571
			c-6.811,46.169-4.037,94.763,14.029,138.172c32.11,78.032,108.647,110.215,188.146,115.937c2.291,0.176,6.05,0.435,9.403,0.641
			v132.894c0,59.132-36.838,108.273-93.849,125.193c-26.225,7.786-53.711,8.797-78.204-0.654
			c-31.711-12.235-45.151-35.028-48.368-61.045c13.11,8.626,28.993,13.382,46.035,12.593c39.402-1.824,71.391-33.6,73.445-72.991
			c2.322-44.521-33.09-81.347-77.104-81.347c-36.208,0-64.091,18.096-80.214,47.828c-18.348,33.835-16.782,73.066,7.758,110.769
			c27.201,41.791,70.929,65.074,118.116,65.073c14.031-0.001,28.372-2.06,42.67-6.303c63.323-18.794,104.24-73.4,104.24-139.116
			v-132.343c52.815,0.064,104.543-25.17,138.005-66.357C1323.561,905.919,1334.99,850.891,1322.53,797.447z M1150.395,360.042
			c0-32.583,8.823-65.658,28.182-91.596c13.724-18.59,32.444-33.258,53.372-42.654c3.457-1.554,6.928-2.934,10.457-4.11
			c8.699,7.015,15.394,16.411,20.695,26.548c9.847,19.301,13.913,42.712,12.954,64.889c-0.668,13.637-4.488,27.056-9.803,39.575
			c-7.276,16.338-14.959,32.081-24.922,46.837c-23.435,34.26-58.182,63.261-90.936,90.946V360.042z M1022.528,970.648
			c-81.576-44.295-89.868-143.11-58.833-222.289c25.096-61.534,80.167-103.084,134.004-138.913
			c12.868-8.67,25.668-17.536,38.174-26.797v89.25c-37.41,7.639-70.953,30.956-89.483,71.449
			c-17.224,37.164-18.401,84.931,5.01,119.321c3.907,5.562,12.272,1.191,10.5-4.909c-9.672-34.362-0.973-69.928,16.847-96.723
			c14.019-21.737,34.501-35.011,57.126-39.97v273.346C1096.864,995.684,1056.83,989.281,1022.528,970.648z M1269.521,904.205
			c-19.17,46.996-64.54,82.999-115.414,89.07c-1.235,0.114-2.472,0.219-3.711,0.318V719.058c15.801-0.993,32.165,1.794,47.759,8.358
			c28.218,11.648,52.457,35.901,66.704,61.955c8.961,16.672,13.535,36.758,14.552,56.48
			C1280.761,865.777,1277.232,885.688,1269.521,904.205z"/>
		<path d="M660.611,676.147c0.061,2.547-1.877,4.7-4.414,4.899c-0.125,0.01-0.25,0.016-0.375,0.016c-2.57,0-4.709-2.053-4.78-4.668
			c-1.341-49.082-22.315-63.977-39.397-77.284c-5.171-4.029-12.71-0.337-12.71,6.217v138.023c0,16.653-16.589,30.155-37.052,30.155
			c-20.464,0-37.052-13.502-37.052-30.155s16.589-30.155,37.052-30.155c9.261,0,17.724,2.762,24.22,7.333V559.96
			c0-3.65,2.959-6.609,6.609-6.609h0c3.338,0,6.161,2.489,6.558,5.803C604.055,599.197,658.636,595.442,660.611,676.147z"/>
		<path d="M907.99,634.176c-0.503,2.498-2.868,4.169-5.387,3.802c-0.124-0.018-0.248-0.04-0.37-0.067
			c-2.506-0.568-4.139-3.043-3.631-5.608c9.534-48.166-7.631-67.326-21.352-84.077c-4.154-5.072-12.322-3.136-13.769,3.256
			l-30.489,134.614c-3.678,16.241-22.84,25.746-42.798,21.225c-19.958-4.52-33.154-21.354-29.476-37.595
			c3.678-16.241,22.84-25.746,42.798-21.225c9.033,2.046,16.676,6.609,22.002,12.502l35.469-156.602
			c0.806-3.56,4.346-5.792,7.905-4.986h0c3.255,0.737,5.459,3.788,5.114,7.108C869.829,546.634,923.891,555.029,907.99,634.176z"/>
		<path d="M1516.833,892.716c0.061,2.547-1.877,4.7-4.414,4.899c-0.125,0.01-0.25,0.016-0.375,0.016c-2.57,0-4.709-2.053-4.78-4.668
			c-1.341-49.082-22.315-63.977-39.397-77.284c-5.171-4.029-12.71-0.337-12.71,6.217V959.92c0,16.653-16.589,30.155-37.052,30.155
			c-20.464,0-37.052-13.502-37.052-30.155s16.588-30.155,37.052-30.155c9.261,0,17.724,2.762,24.22,7.333l0-160.569
			c0-3.65,2.959-6.609,6.609-6.609l0,0c3.338,0,6.161,2.489,6.557,5.803C1460.277,815.766,1514.858,812.011,1516.833,892.716z"/>
		<path d="M1711.34,694.693c0.509,2.497-1.02,4.957-3.483,5.599c-0.121,0.032-0.244,0.06-0.367,0.082
			c-2.529,0.452-4.997-1.192-5.527-3.753c-9.962-48.079-33.23-59.048-52.389-69.14c-5.8-3.056-12.571,1.906-11.417,8.358
			l24.302,135.867c2.932,16.392-11.02,32.605-31.164,36.208s-38.851-6.768-41.783-23.16c-2.932-16.393,11.02-32.605,31.164-36.208
			c9.117-1.631,17.934-0.402,25.133,2.954l-28.271-158.06c-0.643-3.593,1.749-7.027,5.342-7.669l0,0
			c3.286-0.588,6.503,1.365,7.477,4.557C1642.119,628.903,1695.186,615.597,1711.34,694.693z"/>
		<path d="M1876.569,814.407c0.834,2.407-0.355,5.048-2.711,6.011c-0.116,0.047-0.234,0.092-0.353,0.13
			c-2.447,0.783-5.111-0.52-5.975-2.989c-16.235-46.339-40.75-54.133-61.075-61.601c-6.153-2.262-12.208,3.553-10.211,9.795
			l42.063,131.458c5.075,15.861-6.61,33.776-26.1,40.012c-19.49,6.236-39.405-1.568-44.479-17.429
			c-5.075-15.861,6.61-33.776,26.1-40.012c8.821-2.822,17.723-2.771,25.303-0.396l-48.933-152.931
			c-1.112-3.476,0.804-7.196,4.281-8.309l0,0c3.179-1.017,6.627,0.493,8.014,3.528
			C1799.253,758.353,1850.093,738.143,1876.569,814.407z"/>
		<path d="M1976.648,555.453c0.834,2.407-0.355,5.048-2.711,6.011c-0.116,0.047-0.234,0.092-0.353,0.13
			c-2.447,0.783-5.111-0.52-5.975-2.989c-16.235-46.339-40.75-54.133-61.075-61.601c-6.153-2.262-12.208,3.553-10.211,9.795
			l42.063,131.458c5.075,15.86-6.61,33.776-26.1,40.012c-19.49,6.236-39.405-1.568-44.479-17.429
			c-5.075-15.861,6.61-33.776,26.1-40.012c8.821-2.822,17.723-2.771,25.303-0.396l-48.933-152.931
			c-1.112-3.476,0.804-7.196,4.28-8.309l0,0c3.179-1.017,6.627,0.493,8.014,3.528
			C1899.332,499.399,1950.172,479.189,1976.648,555.453z"/>
		<path d="M307.662,736.119c1.337,2.169,0.75,5.005-1.341,6.456c-0.103,0.071-0.208,0.14-0.316,0.203
			c-2.219,1.296-5.102,0.602-6.482-1.62c-25.913-41.706-51.536-43.989-72.998-46.863c-6.498-0.871-11.145,6.12-7.839,11.779
			L288.3,825.256c8.399,14.379,0.885,34.405-16.785,44.726s-38.804,7.029-47.203-7.351c-8.399-14.379-0.885-34.405,16.785-44.726
			c7.997-4.671,16.698-6.554,24.613-5.883l-80.985-138.65c-1.841-3.152-0.778-7.199,2.373-9.04h0
			c2.882-1.683,6.576-0.959,8.589,1.703C220.016,698.198,265.252,667.427,307.662,736.119z"/>
		<path d="M489.471,579.01c0.542,2.49-0.953,4.97-3.407,5.646c-0.121,0.033-0.243,0.063-0.365,0.087
			c-2.523,0.487-5.013-1.124-5.577-3.678c-10.61-47.94-34.024-58.595-53.317-68.426c-5.841-2.977-12.544,2.076-11.303,8.511
			l26.133,135.527c3.153,16.351-10.579,32.75-30.673,36.625c-20.094,3.874-38.939-6.243-42.091-22.594
			c-3.153-16.351,10.579-32.75,30.673-36.625c9.094-1.754,17.926-0.644,25.171,2.615l-30.401-157.665
			c-0.691-3.584,1.654-7.049,5.238-7.741h0c3.277-0.632,6.521,1.277,7.538,4.456C419.369,514.16,472.252,500.139,489.471,579.01z"/>
	</g>
</g>
</svg>
